<?xml version="1.0" encoding="iso-8859-1"?>
<!-- Generator: Adobe Illustrator 19.0.0, SVG Export Plug-In . SVG Version: 6.00 Build 0)  -->
<svg version="1.1" id="Capa_1" xmlns="http://www.w3.org/2000/svg" xmlns:xlink="http://www.w3.org/1999/xlink" x="0px" y="0px"
	 viewBox="0 0 512 512" style="enable-background:new 0 0 512 512;" xml:space="preserve">
<rect y="44.96" width="512" height="54.24"/>
<g>
	<rect x="459.28" y="69.768" style="fill:#999999;" width="26.608" height="4.616"/>
	<polygon style="fill:#999999;" points="474.656,85.848 471.336,82.52 481.864,71.984 471.336,61.456 474.656,58.312 488.52,71.984 
			"/>
</g>
<rect x="8" y="107.2" style="fill:#FFFFFF;" width="496" height="352"/>
<path style="fill:#EFEFEF;" d="M496,115.2v336H16v-336L496,115.2 M512,99.2H0v368h512V99.2L512,99.2z"/>
<path style="fill:#CCCCCC;" d="M488,123.2v320H24v-320L488,123.2 M492,119.2H20v328h472V119.2L492,119.2z"/>
<g>
	<path style="fill:#999999;" d="M138,61.296l2.824,11.064c0.704,2.352,1.176,4.704,1.648,7.064h0.232
		c0.472-2.12,1.176-4.472,1.88-6.824l3.528-11.064h3.296l3.296,11.064c0.704,2.592,1.416,4.944,1.88,7.064h0.232
		c0.472-2.12,0.944-4.472,1.648-7.064l3.056-11.064h4l-7.064,21.888h-3.528l-3.296-10.352c-0.704-2.352-1.416-4.704-1.88-7.296l0,0
		c-0.472,2.592-1.176,4.944-1.88,7.296l-3.528,10.352h-3.528l-6.592-21.888h3.768v-0.24H138z"/>
	<path style="fill:#999999;" d="M171.656,61.296l2.824,11.064c0.704,2.352,1.176,4.704,1.648,7.064h0.232
		c0.472-2.12,1.176-4.472,1.88-6.824l3.528-11.064h3.296L188.36,72.6c0.704,2.592,1.416,4.944,1.88,7.064h0.232
		c0.472-2.12,0.944-4.472,1.648-7.064l3.056-11.064h4l-7.064,21.888h-3.528L185.288,72.6c-0.704-2.352-1.416-4.704-1.88-7.296l0,0
		c-0.472,2.592-1.176,4.944-1.88,7.296L178,82.952h-3.52l-6.592-21.888h3.768V61.296z"/>
	<path style="fill:#999999;" d="M205.544,61.296l2.824,11.064c0.704,2.352,1.176,4.704,1.648,7.064h0.232
		c0.472-2.12,1.176-4.472,1.88-6.824l3.528-11.064h3.296l3.296,11.064c0.704,2.592,1.416,4.944,1.88,7.064h0.232
		c0.472-2.12,0.944-4.472,1.648-7.064l3.056-11.064h4L226,83.424h-3.528l-3.296-10.352c-0.704-2.352-1.416-4.704-1.88-7.296l0,0
		c-0.472,2.592-1.176,4.944-1.88,7.296l-3.528,10.352h-3.528l-6.592-21.888h3.768v-0.24H205.544z"/>
	<path style="fill:#999999;" d="M234.496,80.832c0-1.648,1.176-2.824,2.824-2.824s2.592,1.176,2.592,2.824
		c0,1.648-0.944,2.824-2.824,2.824C235.432,83.656,234.496,82.48,234.496,80.832z"/>
</g>
<polygon style="fill:#E21B1B;" points="78.376,99.184 0,99.184 0,44.8 118.552,44.8 "/>
<rect x="59.208" y="150.888" style="fill:#CCCCCC;" width="393.44" height="116.784"/>
<rect x="59.208" y="283.2" style="fill:#F91E1E;" width="393.44" height="29.568"/>
<g>
	<rect x="59.208" y="340.56" style="fill:#CCCCCC;" width="184.72" height="4"/>
	<rect x="59.208" y="363.2" style="fill:#CCCCCC;" width="184.72" height="4"/>
	<rect x="59.208" y="385.84" style="fill:#CCCCCC;" width="184.72" height="4"/>
	<rect x="59.208" y="408.56" style="fill:#CCCCCC;" width="184.72" height="4"/>
	<rect x="267.872" y="340.56" style="fill:#CCCCCC;" width="184.72" height="4"/>
	<rect x="267.872" y="363.2" style="fill:#CCCCCC;" width="184.72" height="4"/>
	<rect x="267.872" y="385.84" style="fill:#CCCCCC;" width="184.72" height="4"/>
	<rect x="267.872" y="408.56" style="fill:#CCCCCC;" width="184.72" height="4"/>
</g>
<g>
</g>
<g>
</g>
<g>
</g>
<g>
</g>
<g>
</g>
<g>
</g>
<g>
</g>
<g>
</g>
<g>
</g>
<g>
</g>
<g>
</g>
<g>
</g>
<g>
</g>
<g>
</g>
<g>
</g>
</svg>
